solid OpenSCAD_Model
  facet normal -0.99863 0.0523343 0
    outer loop
      vertex -1.7 32.4 0
      vertex -1.6633 33.1003 15
      vertex -1.6633 33.1003 0
    endloop
  endfacet
  facet normal -0.99863 0.0523343 0
    outer loop
      vertex -1.6633 33.1003 15
      vertex -1.7 32.4 0
      vertex -1.7 32.4 15
    endloop
  endfacet
  facet normal 0.0523313 0.99863 -0
    outer loop
      vertex 5.70034 39.0633 0
      vertex 5 39.1 15
      vertex 5.70034 39.0633 15
    endloop
  endfacet
  facet normal 0.0523313 0.99863 0
    outer loop
      vertex 5 39.1 15
      vertex 5.70034 39.0633 0
      vertex 5 39.1 0
    endloop
  endfacet
  facet normal 0.707107 0.707107 0
    outer loop
      vertex 9.97907 36.8832 15
      vertex 9.48317 37.3791 0
      vertex 9.48317 37.3791 15
    endloop
  endfacet
  facet normal 0.707107 0.707107 0
    outer loop
      vertex 9.48317 37.3791 0
      vertex 9.97907 36.8832 15
      vertex 9.97907 36.8832 0
    endloop
  endfacet
  facet normal -0.629283 0.777176 0
    outer loop
      vertex 1.06184 37.8204 0
      vertex 0.516826 37.3791 15
      vertex 1.06184 37.8204 15
    endloop
  endfacet
  facet normal -0.629283 0.777176 0
    outer loop
      vertex 0.516826 37.3791 15
      vertex 1.06184 37.8204 0
      vertex 0.516826 37.3791 0
    endloop
  endfacet
  facet normal -0.358339 0.933592 0
    outer loop
      vertex 2.92959 38.7721 0
      vertex 2.27487 38.5208 15
      vertex 2.92959 38.7721 15
    endloop
  endfacet
  facet normal -0.358339 0.933592 0
    outer loop
      vertex 2.27487 38.5208 15
      vertex 2.92959 38.7721 0
      vertex 2.27487 38.5208 0
    endloop
  endfacet
  facet normal -0.933574 -0.358386 0
    outer loop
      vertex -1.12075 29.6749 0
      vertex -1.37208 30.3296 15
      vertex -1.37208 30.3296 0
    endloop
  endfacet
  facet normal -0.933574 -0.358386 0
    outer loop
      vertex -1.37208 30.3296 15
      vertex -1.12075 29.6749 0
      vertex -1.12075 29.6749 15
    endloop
  endfacet
  facet normal 0.454005 0.890999 -0
    outer loop
      vertex 8.35 38.2024 0
      vertex 7.72513 38.5208 15
      vertex 8.35 38.2024 15
    endloop
  endfacet
  facet normal 0.454005 0.890999 0
    outer loop
      vertex 7.72513 38.5208 15
      vertex 8.35 38.2024 0
      vertex 7.72513 38.5208 0
    endloop
  endfacet
  facet normal 0.544684 0.838642 -0
    outer loop
      vertex 8.93816 37.8204 0
      vertex 8.35 38.2024 15
      vertex 8.93816 37.8204 15
    endloop
  endfacet
  facet normal 0.544684 0.838642 0
    outer loop
      vertex 8.35 38.2024 15
      vertex 8.93816 37.8204 0
      vertex 8.35 38.2024 0
    endloop
  endfacet
  facet normal -0.891019 0.453965 0
    outer loop
      vertex -1.12075 35.1251 0
      vertex -0.80237 35.75 15
      vertex -0.80237 35.75 0
    endloop
  endfacet
  facet normal -0.891019 0.453965 0
    outer loop
      vertex -0.80237 35.75 15
      vertex -1.12075 35.1251 0
      vertex -1.12075 35.1251 15
    endloop
  endfacet
  facet normal -0.454005 0.890999 0
    outer loop
      vertex 2.27487 38.5208 0
      vertex 1.65 38.2024 15
      vertex 2.27487 38.5208 15
    endloop
  endfacet
  facet normal -0.454005 0.890999 0
    outer loop
      vertex 1.65 38.2024 15
      vertex 2.27487 38.5208 0
      vertex 1.65 38.2024 0
    endloop
  endfacet
  facet normal -0.156423 0.98769 0
    outer loop
      vertex 4.29966 39.0633 0
      vertex 3.60699 38.9536 15
      vertex 4.29966 39.0633 15
    endloop
  endfacet
  facet normal -0.156423 0.98769 0
    outer loop
      vertex 3.60699 38.9536 15
      vertex 4.29966 39.0633 0
      vertex 3.60699 38.9536 0
    endloop
  endfacet
  facet normal -0.891019 -0.453965 0
    outer loop
      vertex -0.80237 29.05 0
      vertex -1.12075 29.6749 15
      vertex -1.12075 29.6749 0
    endloop
  endfacet
  facet normal -0.891019 -0.453965 0
    outer loop
      vertex -1.12075 29.6749 15
      vertex -0.80237 29.05 0
      vertex -0.80237 29.05 15
    endloop
  endfacet
  facet normal 0 0 -1
    outer loop
      vertex 10.705 28.9 0
      vertex 61.5 35.9 0
      vertex 61.5 28.9 0
    endloop
  endfacet
  facet normal 0 0 -1
    outer loop
      vertex 10.705 28.9 0
      vertex 10.705 35.9 0
      vertex 61.5 35.9 0
    endloop
  endfacet
  facet normal 0 0 -1
    outer loop
      vertex 9.20689 29.3435 0
      vertex 10.705 28.9 0
      vertex 10.4204 28.4618 0
    endloop
  endfacet
  facet normal 0 0 -1
    outer loop
      vertex 10.705 28.9 0
      vertex 10.2 32.4 0
      vertex 10.705 35.9 0
    endloop
  endfacet
  facet normal 0 0 -1
    outer loop
      vertex 10.1715 32.9435 0
      vertex 10.705 35.9 0
      vertex 10.2 32.4 0
    endloop
  endfacet
  facet normal 0 0 -1
    outer loop
      vertex 10.705 28.9 0
      vertex 10.1715 31.8565 0
      vertex 10.2 32.4 0
    endloop
  endfacet
  facet normal 0 0 -1
    outer loop
      vertex 10.705 28.9 0
      vertex 10.0864 31.3189 0
      vertex 10.1715 31.8565 0
    endloop
  endfacet
  facet normal 0 0 -1
    outer loop
      vertex 9.20689 29.3435 0
      vertex 10.4204 28.4618 0
      vertex 9.97907 27.9168 0
    endloop
  endfacet
  facet normal 0 0 -1
    outer loop
      vertex 10.705 28.9 0
      vertex 9.94549 30.7931 0
      vertex 10.0864 31.3189 0
    endloop
  endfacet
  facet normal 0 0 -1
    outer loop
      vertex 10.705 28.9 0
      vertex 9.75044 30.285 0
      vertex 9.94549 30.7931 0
    endloop
  endfacet
  facet normal 0 0 -1
    outer loop
      vertex 10.705 28.9 0
      vertex 9.50333 29.8 0
      vertex 9.75044 30.285 0
    endloop
  endfacet
  facet normal 0 0 -1
    outer loop
      vertex 8.86435 28.9205 0
      vertex 9.97907 27.9168 0
      vertex 9.48317 27.4209 0
    endloop
  endfacet
  facet normal 0 0 -1
    outer loop
      vertex 10.705 28.9 0
      vertex 9.20689 29.3435 0
      vertex 9.50333 29.8 0
    endloop
  endfacet
  facet normal 0 0 -1
    outer loop
      vertex 8.47948 28.5356 0
      vertex 9.48317 27.4209 0
      vertex 8.93816 26.9796 0
    endloop
  endfacet
  facet normal 0 0 -1
    outer loop
      vertex 9.97907 27.9168 0
      vertex 8.86435 28.9205 0
      vertex 9.20689 29.3435 0
    endloop
  endfacet
  facet normal 0 0 -1
    outer loop
      vertex 9.48317 27.4209 0
      vertex 8.47948 28.5356 0
      vertex 8.86435 28.9205 0
    endloop
  endfacet
  facet normal 0 0 -1
    outer loop
      vertex 8.05648 28.1931 0
      vertex 8.93816 26.9796 0
      vertex 8.35 26.5976 0
    endloop
  endfacet
  facet normal 0 0 -1
    outer loop
      vertex 8.93816 26.9796 0
      vertex 8.05648 28.1931 0
      vertex 8.47948 28.5356 0
    endloop
  endfacet
  facet normal 0 0 -1
    outer loop
      vertex 7.6 27.8967 0
      vertex 8.35 26.5976 0
      vertex 7.72513 26.2792 0
    endloop
  endfacet
  facet normal 0 0 -1
    outer loop
      vertex 8.35 26.5976 0
      vertex 7.6 27.8967 0
      vertex 8.05648 28.1931 0
    endloop
  endfacet
  facet normal 0 0 -1
    outer loop
      vertex 7.72513 26.2792 0
      vertex 7.11503 27.6496 0
      vertex 7.6 27.8967 0
    endloop
  endfacet
  facet normal 0 0 -1
    outer loop
      vertex 7.07041 26.0279 0
      vertex 7.11503 27.6496 0
      vertex 7.72513 26.2792 0
    endloop
  endfacet
  facet normal 0 0 -1
    outer loop
      vertex 7.07041 26.0279 0
      vertex 6.60689 27.4545 0
      vertex 7.11503 27.6496 0
    endloop
  endfacet
  facet normal 0 0 -1
    outer loop
      vertex 6.39301 25.8464 0
      vertex 6.60689 27.4545 0
      vertex 7.07041 26.0279 0
    endloop
  endfacet
  facet normal 0 0 -1
    outer loop
      vertex 6.39301 25.8464 0
      vertex 6.08114 27.3136 0
      vertex 6.60689 27.4545 0
    endloop
  endfacet
  facet normal 0 0 -1
    outer loop
      vertex 5.70034 25.7367 0
      vertex 6.08114 27.3136 0
      vertex 6.39301 25.8464 0
    endloop
  endfacet
  facet normal 0 0 -1
    outer loop
      vertex 5.70034 25.7367 0
      vertex 5.54355 27.2285 0
      vertex 6.08114 27.3136 0
    endloop
  endfacet
  facet normal 0 0 -1
    outer loop
      vertex 5 25.7 0
      vertex 5.54355 27.2285 0
      vertex 5.70034 25.7367 0
    endloop
  endfacet
  facet normal 0 0 -1
    outer loop
      vertex 5 25.7 0
      vertex 5 27.2 0
      vertex 5.54355 27.2285 0
    endloop
  endfacet
  facet normal 0 0 -1
    outer loop
      vertex 5 25.7 0
      vertex 4.45645 27.2285 0
      vertex 5 27.2 0
    endloop
  endfacet
  facet normal 0 0 -1
    outer loop
      vertex 4.29966 25.7367 0
      vertex 4.45645 27.2285 0
      vertex 5 25.7 0
    endloop
  endfacet
  facet normal 0 0 -1
    outer loop
      vertex 4.29966 25.7367 0
      vertex 3.91886 27.3136 0
      vertex 4.45645 27.2285 0
    endloop
  endfacet
  facet normal 0 0 -1
    outer loop
      vertex 3.60699 25.8464 0
      vertex 3.91886 27.3136 0
      vertex 4.29966 25.7367 0
    endloop
  endfacet
  facet normal 0 0 -1
    outer loop
      vertex 3.60699 25.8464 0
      vertex 3.39311 27.4545 0
      vertex 3.91886 27.3136 0
    endloop
  endfacet
  facet normal 0 0 -1
    outer loop
      vertex 2.92959 26.0279 0
      vertex 3.39311 27.4545 0
      vertex 3.60699 25.8464 0
    endloop
  endfacet
  facet normal 0 0 -1
    outer loop
      vertex 2.92959 26.0279 0
      vertex 2.88497 27.6496 0
      vertex 3.39311 27.4545 0
    endloop
  endfacet
  facet normal 0 0 -1
    outer loop
      vertex 2.27487 26.2792 0
      vertex 2.88497 27.6496 0
      vertex 2.92959 26.0279 0
    endloop
  endfacet
  facet normal -0 0 -1
    outer loop
      vertex 2.88497 27.6496 0
      vertex 2.27487 26.2792 0
      vertex 2.4 27.8967 0
    endloop
  endfacet
  facet normal 0 0 -1
    outer loop
      vertex 1.65 26.5976 0
      vertex 2.4 27.8967 0
      vertex 2.27487 26.2792 0
    endloop
  endfacet
  facet normal -0 0 -1
    outer loop
      vertex 2.4 27.8967 0
      vertex 1.65 26.5976 0
      vertex 1.94352 28.1931 0
    endloop
  endfacet
  facet normal 0 0 -1
    outer loop
      vertex 1.06184 26.9796 0
      vertex 1.94352 28.1931 0
      vertex 1.65 26.5976 0
    endloop
  endfacet
  facet normal -0 0 -1
    outer loop
      vertex 1.94352 28.1931 0
      vertex 1.06184 26.9796 0
      vertex 1.52052 28.5356 0
    endloop
  endfacet
  facet normal 0 0 -1
    outer loop
      vertex 0.516826 27.4209 0
      vertex 1.52052 28.5356 0
      vertex 1.06184 26.9796 0
    endloop
  endfacet
  facet normal -0 0 -1
    outer loop
      vertex 1.52052 28.5356 0
      vertex 0.516826 27.4209 0
      vertex 1.13565 28.9205 0
    endloop
  endfacet
  facet normal 0 0 -1
    outer loop
      vertex 0.0209303 27.9168 0
      vertex 1.13565 28.9205 0
      vertex 0.516826 27.4209 0
    endloop
  endfacet
  facet normal -0 0 -1
    outer loop
      vertex 1.13565 28.9205 0
      vertex 0.0209303 27.9168 0
      vertex 0.793112 29.3435 0
    endloop
  endfacet
  facet normal 0 0 -1
    outer loop
      vertex -0.420413 28.4618 0
      vertex 0.793112 29.3435 0
      vertex 0.0209303 27.9168 0
    endloop
  endfacet
  facet normal -0 0 -1
    outer loop
      vertex 0.793112 29.3435 0
      vertex -0.420413 28.4618 0
      vertex 0.496669 29.8 0
    endloop
  endfacet
  facet normal 0 0 -1
    outer loop
      vertex -0.80237 29.05 0
      vertex 0.496669 29.8 0
      vertex -0.420413 28.4618 0
    endloop
  endfacet
  facet normal -0 0 -1
    outer loop
      vertex 0.496669 29.8 0
      vertex -0.80237 29.05 0
      vertex 0.249564 30.285 0
    endloop
  endfacet
  facet normal 0 0 -1
    outer loop
      vertex -1.12075 29.6749 0
      vertex 0.249564 30.285 0
      vertex -0.80237 29.05 0
    endloop
  endfacet
  facet normal -0 0 -1
    outer loop
      vertex 0.249564 30.285 0
      vertex -1.12075 29.6749 0
      vertex 0.0545063 30.7931 0
    endloop
  endfacet
  facet normal 0 0 -1
    outer loop
      vertex -1.37208 30.3296 0
      vertex 0.0545063 30.7931 0
      vertex -1.12075 29.6749 0
    endloop
  endfacet
  facet normal 0 0 -1
    outer loop
      vertex 10.0864 33.4811 0
      vertex 10.705 35.9 0
      vertex 10.1715 32.9435 0
    endloop
  endfacet
  facet normal 0 0 -1
    outer loop
      vertex 9.94549 34.0069 0
      vertex 10.705 35.9 0
      vertex 10.0864 33.4811 0
    endloop
  endfacet
  facet normal 0 0 -1
    outer loop
      vertex 9.75044 34.515 0
      vertex 10.705 35.9 0
      vertex 9.94549 34.0069 0
    endloop
  endfacet
  facet normal 0 0 -1
    outer loop
      vertex 9.50333 35 0
      vertex 10.705 35.9 0
      vertex 9.75044 34.515 0
    endloop
  endfacet
  facet normal 0 0 -1
    outer loop
      vertex 9.20689 35.4565 0
      vertex 10.705 35.9 0
      vertex 9.50333 35 0
    endloop
  endfacet
  facet normal -0 0 -1
    outer loop
      vertex 10.705 35.9 0
      vertex 9.20689 35.4565 0
      vertex 10.4204 36.3382 0
    endloop
  endfacet
  facet normal -0 0 -1
    outer loop
      vertex 10.4204 36.3382 0
      vertex 9.20689 35.4565 0
      vertex 9.97907 36.8832 0
    endloop
  endfacet
  facet normal 0 0 -1
    outer loop
      vertex 8.86435 35.8795 0
      vertex 9.97907 36.8832 0
      vertex 9.20689 35.4565 0
    endloop
  endfacet
  facet normal -0 0 -1
    outer loop
      vertex 9.97907 36.8832 0
      vertex 8.86435 35.8795 0
      vertex 9.48317 37.3791 0
    endloop
  endfacet
  facet normal 0 0 -1
    outer loop
      vertex 8.47948 36.2644 0
      vertex 9.48317 37.3791 0
      vertex 8.86435 35.8795 0
    endloop
  endfacet
  facet normal -0 0 -1
    outer loop
      vertex 9.48317 37.3791 0
      vertex 8.47948 36.2644 0
      vertex 8.93816 37.8204 0
    endloop
  endfacet
  facet normal 0 0 -1
    outer loop
      vertex 8.05648 36.6069 0
      vertex 8.93816 37.8204 0
      vertex 8.47948 36.2644 0
    endloop
  endfacet
  facet normal -0 0 -1
    outer loop
      vertex 8.93816 37.8204 0
      vertex 8.05648 36.6069 0
      vertex 8.35 38.2024 0
    endloop
  endfacet
  facet normal 0 0 -1
    outer loop
      vertex 7.6 36.9033 0
      vertex 8.35 38.2024 0
      vertex 8.05648 36.6069 0
    endloop
  endfacet
  facet normal -0 0 -1
    outer loop
      vertex 8.35 38.2024 0
      vertex 7.6 36.9033 0
      vertex 7.72513 38.5208 0
    endloop
  endfacet
  facet normal 0 0 -1
    outer loop
      vertex 7.11503 37.1504 0
      vertex 7.72513 38.5208 0
      vertex 7.6 36.9033 0
    endloop
  endfacet
  facet normal 0 0 -1
    outer loop
      vertex 7.11503 37.1504 0
      vertex 7.07041 38.7721 0
      vertex 7.72513 38.5208 0
    endloop
  endfacet
  facet normal 0 0 -1
    outer loop
      vertex 6.60689 37.3455 0
      vertex 7.07041 38.7721 0
      vertex 7.11503 37.1504 0
    endloop
  endfacet
  facet normal 0 0 -1
    outer loop
      vertex 6.60689 37.3455 0
      vertex 6.39301 38.9536 0
      vertex 7.07041 38.7721 0
    endloop
  endfacet
  facet normal 0 0 -1
    outer loop
      vertex 6.08114 37.4864 0
      vertex 6.39301 38.9536 0
      vertex 6.60689 37.3455 0
    endloop
  endfacet
  facet normal 0 0 -1
    outer loop
      vertex 6.08114 37.4864 0
      vertex 5.70034 39.0633 0
      vertex 6.39301 38.9536 0
    endloop
  endfacet
  facet normal 0 0 -1
    outer loop
      vertex 5.54355 37.5715 0
      vertex 5.70034 39.0633 0
      vertex 6.08114 37.4864 0
    endloop
  endfacet
  facet normal 0 0 -1
    outer loop
      vertex 5 37.6 0
      vertex 5.70034 39.0633 0
      vertex 5.54355 37.5715 0
    endloop
  endfacet
  facet normal 0 0 -1
    outer loop
      vertex 5 37.6 0
      vertex 5 39.1 0
      vertex 5.70034 39.0633 0
    endloop
  endfacet
  facet normal 0 0 -1
    outer loop
      vertex 4.45645 37.5715 0
      vertex 5 39.1 0
      vertex 5 37.6 0
    endloop
  endfacet
  facet normal 0 0 -1
    outer loop
      vertex 4.45645 37.5715 0
      vertex 4.29966 39.0633 0
      vertex 5 39.1 0
    endloop
  endfacet
  facet normal 0 0 -1
    outer loop
      vertex 3.91886 37.4864 0
      vertex 4.29966 39.0633 0
      vertex 4.45645 37.5715 0
    endloop
  endfacet
  facet normal 0 0 -1
    outer loop
      vertex 3.91886 37.4864 0
      vertex 3.60699 38.9536 0
      vertex 4.29966 39.0633 0
    endloop
  endfacet
  facet normal 0 0 -1
    outer loop
      vertex 3.39311 37.3455 0
      vertex 3.60699 38.9536 0
      vertex 3.91886 37.4864 0
    endloop
  endfacet
  facet normal 0 0 -1
    outer loop
      vertex 3.39311 37.3455 0
      vertex 2.92959 38.7721 0
      vertex 3.60699 38.9536 0
    endloop
  endfacet
  facet normal 0 0 -1
    outer loop
      vertex 2.88497 37.1504 0
      vertex 2.92959 38.7721 0
      vertex 3.39311 37.3455 0
    endloop
  endfacet
  facet normal 0 0 -1
    outer loop
      vertex 2.27487 38.5208 0
      vertex 2.88497 37.1504 0
      vertex 2.4 36.9033 0
    endloop
  endfacet
  facet normal 0 0 -1
    outer loop
      vertex 2.88497 37.1504 0
      vertex 2.27487 38.5208 0
      vertex 2.92959 38.7721 0
    endloop
  endfacet
  facet normal 0 0 -1
    outer loop
      vertex 1.65 38.2024 0
      vertex 2.4 36.9033 0
      vertex 1.94352 36.6069 0
    endloop
  endfacet
  facet normal 0 0 -1
    outer loop
      vertex 2.4 36.9033 0
      vertex 1.65 38.2024 0
      vertex 2.27487 38.5208 0
    endloop
  endfacet
  facet normal 0 0 -1
    outer loop
      vertex 1.06184 37.8204 0
      vertex 1.94352 36.6069 0
      vertex 1.52052 36.2644 0
    endloop
  endfacet
  facet normal 0 0 -1
    outer loop
      vertex 0.516826 37.3791 0
      vertex 1.52052 36.2644 0
      vertex 1.13565 35.8795 0
    endloop
  endfacet
  facet normal 0 0 -1
    outer loop
      vertex 1.94352 36.6069 0
      vertex 1.06184 37.8204 0
      vertex 1.65 38.2024 0
    endloop
  endfacet
  facet normal 0 0 -1
    outer loop
      vertex 0.0209303 36.8832 0
      vertex 1.13565 35.8795 0
      vertex 0.793112 35.4565 0
    endloop
  endfacet
  facet normal 0 0 -1
    outer loop
      vertex 1.52052 36.2644 0
      vertex 0.516826 37.3791 0
      vertex 1.06184 37.8204 0
    endloop
  endfacet
  facet normal 0 0 -1
    outer loop
      vertex -0.420413 36.3382 0
      vertex 0.793112 35.4565 0
      vertex 0.496669 35 0
    endloop
  endfacet
  facet normal 0 0 -1
    outer loop
      vertex -0.80237 35.75 0
      vertex 0.496669 35 0
      vertex 0.249564 34.515 0
    endloop
  endfacet
  facet normal 0 0 -1
    outer loop
      vertex -1.12075 35.1251 0
      vertex 0.249564 34.515 0
      vertex 0.0545063 34.0069 0
    endloop
  endfacet
  facet normal 0 0 -1
    outer loop
      vertex 1.13565 35.8795 0
      vertex 0.0209303 36.8832 0
      vertex 0.516826 37.3791 0
    endloop
  endfacet
  facet normal 0 0 -1
    outer loop
      vertex -1.37208 34.4704 0
      vertex 0.0545063 34.0069 0
      vertex -0.0863667 33.4811 0
    endloop
  endfacet
  facet normal 0 0 -1
    outer loop
      vertex -1.55359 33.793 0
      vertex -0.0863667 33.4811 0
      vertex -0.171514 32.9435 0
    endloop
  endfacet
  facet normal 0 0 -1
    outer loop
      vertex -1.6633 33.1003 0
      vertex -0.171514 32.9435 0
      vertex -0.2 32.4 0
    endloop
  endfacet
  facet normal -0 0 -1
    outer loop
      vertex 0.0545063 30.7931 0
      vertex -1.37208 30.3296 0
      vertex -0.0863667 31.3189 0
    endloop
  endfacet
  facet normal 0 0 -1
    outer loop
      vertex 0.793112 35.4565 0
      vertex -0.420413 36.3382 0
      vertex 0.0209303 36.8832 0
    endloop
  endfacet
  facet normal 0 0 -1
    outer loop
      vertex -1.55359 31.007 0
      vertex -0.0863667 31.3189 0
      vertex -1.37208 30.3296 0
    endloop
  endfacet
  facet normal 0 0 -1
    outer loop
      vertex 0.496669 35 0
      vertex -0.80237 35.75 0
      vertex -0.420413 36.3382 0
    endloop
  endfacet
  facet normal -0 0 -1
    outer loop
      vertex -0.0863667 31.3189 0
      vertex -1.55359 31.007 0
      vertex -0.171514 31.8565 0
    endloop
  endfacet
  facet normal 0 0 -1
    outer loop
      vertex 0.249564 34.515 0
      vertex -1.12075 35.1251 0
      vertex -0.80237 35.75 0
    endloop
  endfacet
  facet normal 0 0 -1
    outer loop
      vertex -1.6633 31.6997 0
      vertex -0.171514 31.8565 0
      vertex -1.55359 31.007 0
    endloop
  endfacet
  facet normal 0 0 -1
    outer loop
      vertex 0.0545063 34.0069 0
      vertex -1.37208 34.4704 0
      vertex -1.12075 35.1251 0
    endloop
  endfacet
  facet normal -0 0 -1
    outer loop
      vertex -0.171514 31.8565 0
      vertex -1.6633 31.6997 0
      vertex -0.2 32.4 0
    endloop
  endfacet
  facet normal 0 0 -1
    outer loop
      vertex -0.0863667 33.4811 0
      vertex -1.55359 33.793 0
      vertex -1.37208 34.4704 0
    endloop
  endfacet
  facet normal 0 0 -1
    outer loop
      vertex -1.7 32.4 0
      vertex -0.2 32.4 0
      vertex -1.6633 31.6997 0
    endloop
  endfacet
  facet normal 0 0 -1
    outer loop
      vertex -0.171514 32.9435 0
      vertex -1.6633 33.1003 0
      vertex -1.55359 33.793 0
    endloop
  endfacet
  facet normal 0 0 -1
    outer loop
      vertex -0.2 32.4 0
      vertex -1.7 32.4 0
      vertex -1.6633 33.1003 0
    endloop
  endfacet
  facet normal 0.777148 0.629318 0
    outer loop
      vertex 10.4204 36.3382 15
      vertex 9.97907 36.8832 0
      vertex 9.97907 36.8832 15
    endloop
  endfacet
  facet normal 0.777148 0.629318 0
    outer loop
      vertex 9.97907 36.8832 0
      vertex 10.4204 36.3382 15
      vertex 10.4204 36.3382 0
    endloop
  endfacet
  facet normal 0.838645 0.544679 0
    outer loop
      vertex 10.705 35.9 15
      vertex 10.4204 36.3382 0
      vertex 10.4204 36.3382 15
    endloop
  endfacet
  facet normal 0.838645 0.544679 0
    outer loop
      vertex 10.4204 36.3382 0
      vertex 10.705 35.9 15
      vertex 10.705 35.9 0
    endloop
  endfacet
  facet normal 0.258807 0.965929 -0
    outer loop
      vertex 7.07041 38.7721 0
      vertex 6.39301 38.9536 15
      vertex 7.07041 38.7721 15
    endloop
  endfacet
  facet normal 0.258807 0.965929 0
    outer loop
      vertex 6.39301 38.9536 15
      vertex 7.07041 38.7721 0
      vertex 6.39301 38.9536 0
    endloop
  endfacet
  facet normal 0.358339 0.933592 -0
    outer loop
      vertex 7.72513 38.5208 0
      vertex 7.07041 38.7721 15
      vertex 7.72513 38.5208 15
    endloop
  endfacet
  facet normal 0.358339 0.933592 0
    outer loop
      vertex 7.07041 38.7721 15
      vertex 7.72513 38.5208 0
      vertex 7.07041 38.7721 0
    endloop
  endfacet
  facet normal 0.156423 0.98769 -0
    outer loop
      vertex 6.39301 38.9536 0
      vertex 5.70034 39.0633 15
      vertex 6.39301 38.9536 15
    endloop
  endfacet
  facet normal 0.156423 0.98769 0
    outer loop
      vertex 5.70034 39.0633 15
      vertex 6.39301 38.9536 0
      vertex 5.70034 39.0633 0
    endloop
  endfacet
  facet normal 0.629286 0.777174 -0
    outer loop
      vertex 9.48317 37.3791 0
      vertex 8.93816 37.8204 15
      vertex 9.48317 37.3791 15
    endloop
  endfacet
  facet normal 0.629286 0.777174 0
    outer loop
      vertex 8.93816 37.8204 15
      vertex 9.48317 37.3791 0
      vertex 8.93816 37.8204 0
    endloop
  endfacet
  facet normal -0.965925 0.258821 0
    outer loop
      vertex -1.55359 33.793 0
      vertex -1.37208 34.4704 15
      vertex -1.37208 34.4704 0
    endloop
  endfacet
  facet normal -0.965925 0.258821 0
    outer loop
      vertex -1.37208 34.4704 15
      vertex -1.55359 33.793 0
      vertex -1.55359 33.793 15
    endloop
  endfacet
  facet normal -0.777138 0.62933 0
    outer loop
      vertex -0.420413 36.3382 0
      vertex 0.0209303 36.8832 15
      vertex 0.0209303 36.8832 0
    endloop
  endfacet
  facet normal -0.777138 0.62933 0
    outer loop
      vertex 0.0209303 36.8832 15
      vertex -0.420413 36.3382 0
      vertex -0.420413 36.3382 15
    endloop
  endfacet
  facet normal -0.70711 0.707104 0
    outer loop
      vertex 0.0209303 36.8832 0
      vertex 0.516826 37.3791 15
      vertex 0.516826 37.3791 0
    endloop
  endfacet
  facet normal -0.70711 0.707104 0
    outer loop
      vertex 0.516826 37.3791 15
      vertex 0.0209303 36.8832 0
      vertex 0.0209303 36.8832 15
    endloop
  endfacet
  facet normal -0.838687 0.544614 0
    outer loop
      vertex -0.80237 35.75 0
      vertex -0.420413 36.3382 15
      vertex -0.420413 36.3382 0
    endloop
  endfacet
  facet normal -0.838687 0.544614 0
    outer loop
      vertex -0.420413 36.3382 15
      vertex -0.80237 35.75 0
      vertex -0.80237 35.75 15
    endloop
  endfacet
  facet normal -0.933574 0.358386 0
    outer loop
      vertex -1.37208 34.4704 0
      vertex -1.12075 35.1251 15
      vertex -1.12075 35.1251 0
    endloop
  endfacet
  facet normal -0.933574 0.358386 0
    outer loop
      vertex -1.12075 35.1251 15
      vertex -1.37208 34.4704 0
      vertex -1.37208 34.4704 15
    endloop
  endfacet
  facet normal -0.987689 0.15643 0
    outer loop
      vertex -1.6633 33.1003 0
      vertex -1.55359 33.793 15
      vertex -1.55359 33.793 0
    endloop
  endfacet
  facet normal -0.987689 0.15643 0
    outer loop
      vertex -1.55359 33.793 15
      vertex -1.6633 33.1003 0
      vertex -1.6633 33.1003 15
    endloop
  endfacet
  facet normal 0 0 1
    outer loop
      vertex 55.6447 35.9 15
      vertex 11.5 33.9 15
      vertex 55.6447 33.9 15
    endloop
  endfacet
  facet normal -0 0 1
    outer loop
      vertex 9.75044 34.515 15
      vertex 11.5 33.9 15
      vertex 10.705 35.9 15
    endloop
  endfacet
  facet normal -0 0 1
    outer loop
      vertex 10.705 35.9 15
      vertex 11.5 33.9 15
      vertex 55.6447 35.9 15
    endloop
  endfacet
  facet normal -0 0 1
    outer loop
      vertex 11.5 30.9 15
      vertex 55.6447 28.9 15
      vertex 55.6447 30.9 15
    endloop
  endfacet
  facet normal 0 0 1
    outer loop
      vertex 11.5 30.9 15
      vertex 10.705 28.9 15
      vertex 55.6447 28.9 15
    endloop
  endfacet
  facet normal 0 -0 1
    outer loop
      vertex 10.1715 32.9435 15
      vertex 11.5 33.9 15
      vertex 10.0864 33.4811 15
    endloop
  endfacet
  facet normal 0 0 1
    outer loop
      vertex 9.20689 35.4565 15
      vertex 10.705 35.9 15
      vertex 10.4204 36.3382 15
    endloop
  endfacet
  facet normal -0 0 1
    outer loop
      vertex 10.1715 31.8565 15
      vertex 11.5 30.9 15
      vertex 10.2 32.4 15
    endloop
  endfacet
  facet normal -0 0 1
    outer loop
      vertex 10.0864 31.3189 15
      vertex 11.5 30.9 15
      vertex 10.1715 31.8565 15
    endloop
  endfacet
  facet normal 0 0 1
    outer loop
      vertex 11.5 33.9 15
      vertex 10.2 32.4 15
      vertex 11.5 30.9 15
    endloop
  endfacet
  facet normal 0 -0 1
    outer loop
      vertex 10.2 32.4 15
      vertex 11.5 33.9 15
      vertex 10.1715 32.9435 15
    endloop
  endfacet
  facet normal 0 0 1
    outer loop
      vertex 9.20689 35.4565 15
      vertex 10.4204 36.3382 15
      vertex 9.97907 36.8832 15
    endloop
  endfacet
  facet normal 0 0 1
    outer loop
      vertex 11.5 33.9 15
      vertex 9.94549 34.0069 15
      vertex 10.0864 33.4811 15
    endloop
  endfacet
  facet normal 0 0 1
    outer loop
      vertex 11.5 33.9 15
      vertex 9.75044 34.515 15
      vertex 9.94549 34.0069 15
    endloop
  endfacet
  facet normal 0 0 1
    outer loop
      vertex 10.705 35.9 15
      vertex 9.50333 35 15
      vertex 9.75044 34.515 15
    endloop
  endfacet
  facet normal 0 0 1
    outer loop
      vertex 8.86435 35.8795 15
      vertex 9.97907 36.8832 15
      vertex 9.48317 37.3791 15
    endloop
  endfacet
  facet normal 0 0 1
    outer loop
      vertex 10.705 35.9 15
      vertex 9.20689 35.4565 15
      vertex 9.50333 35 15
    endloop
  endfacet
  facet normal 0 0 1
    outer loop
      vertex 8.47948 36.2644 15
      vertex 9.48317 37.3791 15
      vertex 8.93816 37.8204 15
    endloop
  endfacet
  facet normal 0 0 1
    outer loop
      vertex 9.97907 36.8832 15
      vertex 8.86435 35.8795 15
      vertex 9.20689 35.4565 15
    endloop
  endfacet
  facet normal 0 0 1
    outer loop
      vertex 9.48317 37.3791 15
      vertex 8.47948 36.2644 15
      vertex 8.86435 35.8795 15
    endloop
  endfacet
  facet normal 0 0 1
    outer loop
      vertex 8.05648 36.6069 15
      vertex 8.93816 37.8204 15
      vertex 8.35 38.2024 15
    endloop
  endfacet
  facet normal 0 0 1
    outer loop
      vertex 8.93816 37.8204 15
      vertex 8.05648 36.6069 15
      vertex 8.47948 36.2644 15
    endloop
  endfacet
  facet normal 0 0 1
    outer loop
      vertex 7.6 36.9033 15
      vertex 8.35 38.2024 15
      vertex 7.72513 38.5208 15
    endloop
  endfacet
  facet normal 0 0 1
    outer loop
      vertex 8.35 38.2024 15
      vertex 7.6 36.9033 15
      vertex 8.05648 36.6069 15
    endloop
  endfacet
  facet normal 0 0 1
    outer loop
      vertex 7.72513 38.5208 15
      vertex 7.11503 37.1504 15
      vertex 7.6 36.9033 15
    endloop
  endfacet
  facet normal 0 0 1
    outer loop
      vertex 7.07041 38.7721 15
      vertex 7.11503 37.1504 15
      vertex 7.72513 38.5208 15
    endloop
  endfacet
  facet normal 0 0 1
    outer loop
      vertex 7.07041 38.7721 15
      vertex 6.60689 37.3455 15
      vertex 7.11503 37.1504 15
    endloop
  endfacet
  facet normal 0 0 1
    outer loop
      vertex 6.39301 38.9536 15
      vertex 6.60689 37.3455 15
      vertex 7.07041 38.7721 15
    endloop
  endfacet
  facet normal 0 0 1
    outer loop
      vertex 6.39301 38.9536 15
      vertex 6.08114 37.4864 15
      vertex 6.60689 37.3455 15
    endloop
  endfacet
  facet normal 0 0 1
    outer loop
      vertex 5.70034 39.0633 15
      vertex 6.08114 37.4864 15
      vertex 6.39301 38.9536 15
    endloop
  endfacet
  facet normal 0 0 1
    outer loop
      vertex 5.70034 39.0633 15
      vertex 5.54355 37.5715 15
      vertex 6.08114 37.4864 15
    endloop
  endfacet
  facet normal 0 0 1
    outer loop
      vertex 5 39.1 15
      vertex 5.54355 37.5715 15
      vertex 5.70034 39.0633 15
    endloop
  endfacet
  facet normal 0 0 1
    outer loop
      vertex 5 39.1 15
      vertex 5 37.6 15
      vertex 5.54355 37.5715 15
    endloop
  endfacet
  facet normal 0 0 1
    outer loop
      vertex 5 39.1 15
      vertex 4.45645 37.5715 15
      vertex 5 37.6 15
    endloop
  endfacet
  facet normal -0 0 1
    outer loop
      vertex 4.29966 39.0633 15
      vertex 4.45645 37.5715 15
      vertex 5 39.1 15
    endloop
  endfacet
  facet normal 0 0 1
    outer loop
      vertex 4.29966 39.0633 15
      vertex 3.91886 37.4864 15
      vertex 4.45645 37.5715 15
    endloop
  endfacet
  facet normal -0 0 1
    outer loop
      vertex 3.60699 38.9536 15
      vertex 3.91886 37.4864 15
      vertex 4.29966 39.0633 15
    endloop
  endfacet
  facet normal 0 0 1
    outer loop
      vertex 3.60699 38.9536 15
      vertex 3.39311 37.3455 15
      vertex 3.91886 37.4864 15
    endloop
  endfacet
  facet normal -0 0 1
    outer loop
      vertex 2.92959 38.7721 15
      vertex 3.39311 37.3455 15
      vertex 3.60699 38.9536 15
    endloop
  endfacet
  facet normal 0 0 1
    outer loop
      vertex 2.92959 38.7721 15
      vertex 2.88497 37.1504 15
      vertex 3.39311 37.3455 15
    endloop
  endfacet
  facet normal -0 0 1
    outer loop
      vertex 2.27487 38.5208 15
      vertex 2.88497 37.1504 15
      vertex 2.92959 38.7721 15
    endloop
  endfacet
  facet normal 0 0 1
    outer loop
      vertex 2.88497 37.1504 15
      vertex 2.27487 38.5208 15
      vertex 2.4 36.9033 15
    endloop
  endfacet
  facet normal -0 0 1
    outer loop
      vertex 1.65 38.2024 15
      vertex 2.4 36.9033 15
      vertex 2.27487 38.5208 15
    endloop
  endfacet
  facet normal 0 0 1
    outer loop
      vertex 2.4 36.9033 15
      vertex 1.65 38.2024 15
      vertex 1.94352 36.6069 15
    endloop
  endfacet
  facet normal -0 0 1
    outer loop
      vertex 1.06184 37.8204 15
      vertex 1.94352 36.6069 15
      vertex 1.65 38.2024 15
    endloop
  endfacet
  facet normal 0 0 1
    outer loop
      vertex 1.94352 36.6069 15
      vertex 1.06184 37.8204 15
      vertex 1.52052 36.2644 15
    endloop
  endfacet
  facet normal -0 0 1
    outer loop
      vertex 0.516826 37.3791 15
      vertex 1.52052 36.2644 15
      vertex 1.06184 37.8204 15
    endloop
  endfacet
  facet normal 0 0 1
    outer loop
      vertex 1.52052 36.2644 15
      vertex 0.516826 37.3791 15
      vertex 1.13565 35.8795 15
    endloop
  endfacet
  facet normal -0 0 1
    outer loop
      vertex 0.0209303 36.8832 15
      vertex 1.13565 35.8795 15
      vertex 0.516826 37.3791 15
    endloop
  endfacet
  facet normal 0 0 1
    outer loop
      vertex 1.13565 35.8795 15
      vertex 0.0209303 36.8832 15
      vertex 0.793112 35.4565 15
    endloop
  endfacet
  facet normal -0 0 1
    outer loop
      vertex -0.420413 36.3382 15
      vertex 0.793112 35.4565 15
      vertex 0.0209303 36.8832 15
    endloop
  endfacet
  facet normal 0 0 1
    outer loop
      vertex 0.793112 35.4565 15
      vertex -0.420413 36.3382 15
      vertex 0.496669 35 15
    endloop
  endfacet
  facet normal -0 0 1
    outer loop
      vertex -0.80237 35.75 15
      vertex 0.496669 35 15
      vertex -0.420413 36.3382 15
    endloop
  endfacet
  facet normal 0 0 1
    outer loop
      vertex 0.496669 35 15
      vertex -0.80237 35.75 15
      vertex 0.249564 34.515 15
    endloop
  endfacet
  facet normal -0 0 1
    outer loop
      vertex -1.12075 35.1251 15
      vertex 0.249564 34.515 15
      vertex -0.80237 35.75 15
    endloop
  endfacet
  facet normal 0 0 1
    outer loop
      vertex 0.249564 34.515 15
      vertex -1.12075 35.1251 15
      vertex 0.0545063 34.0069 15
    endloop
  endfacet
  facet normal -0 0 1
    outer loop
      vertex -1.37208 34.4704 15
      vertex 0.0545063 34.0069 15
      vertex -1.12075 35.1251 15
    endloop
  endfacet
  facet normal 0 0 1
    outer loop
      vertex 9.94549 30.7931 15
      vertex 11.5 30.9 15
      vertex 10.0864 31.3189 15
    endloop
  endfacet
  facet normal 0 0 1
    outer loop
      vertex 9.75044 30.285 15
      vertex 11.5 30.9 15
      vertex 9.94549 30.7931 15
    endloop
  endfacet
  facet normal 0 0 1
    outer loop
      vertex 11.5 30.9 15
      vertex 9.75044 30.285 15
      vertex 10.705 28.9 15
    endloop
  endfacet
  facet normal -0 0 1
    outer loop
      vertex 9.50333 29.8 15
      vertex 10.705 28.9 15
      vertex 9.75044 30.285 15
    endloop
  endfacet
  facet normal -0 0 1
    outer loop
      vertex 9.20689 29.3435 15
      vertex 10.705 28.9 15
      vertex 9.50333 29.8 15
    endloop
  endfacet
  facet normal 0 0 1
    outer loop
      vertex 10.705 28.9 15
      vertex 9.20689 29.3435 15
      vertex 10.4204 28.4618 15
    endloop
  endfacet
  facet normal 0 0 1
    outer loop
      vertex 10.4204 28.4618 15
      vertex 9.20689 29.3435 15
      vertex 9.97907 27.9168 15
    endloop
  endfacet
  facet normal -0 0 1
    outer loop
      vertex 8.86435 28.9205 15
      vertex 9.97907 27.9168 15
      vertex 9.20689 29.3435 15
    endloop
  endfacet
  facet normal 0 0 1
    outer loop
      vertex 9.97907 27.9168 15
      vertex 8.86435 28.9205 15
      vertex 9.48317 27.4209 15
    endloop
  endfacet
  facet normal -0 0 1
    outer loop
      vertex 8.47948 28.5356 15
      vertex 9.48317 27.4209 15
      vertex 8.86435 28.9205 15
    endloop
  endfacet
  facet normal 0 0 1
    outer loop
      vertex 9.48317 27.4209 15
      vertex 8.47948 28.5356 15
      vertex 8.93816 26.9796 15
    endloop
  endfacet
  facet normal -0 0 1
    outer loop
      vertex 8.05648 28.1931 15
      vertex 8.93816 26.9796 15
      vertex 8.47948 28.5356 15
    endloop
  endfacet
  facet normal 0 0 1
    outer loop
      vertex 8.93816 26.9796 15
      vertex 8.05648 28.1931 15
      vertex 8.35 26.5976 15
    endloop
  endfacet
  facet normal -0 0 1
    outer loop
      vertex 7.6 27.8967 15
      vertex 8.35 26.5976 15
      vertex 8.05648 28.1931 15
    endloop
  endfacet
  facet normal 0 0 1
    outer loop
      vertex 8.35 26.5976 15
      vertex 7.6 27.8967 15
      vertex 7.72513 26.2792 15
    endloop
  endfacet
  facet normal -0 0 1
    outer loop
      vertex 7.11503 27.6496 15
      vertex 7.72513 26.2792 15
      vertex 7.6 27.8967 15
    endloop
  endfacet
  facet normal 0 0 1
    outer loop
      vertex 7.11503 27.6496 15
      vertex 7.07041 26.0279 15
      vertex 7.72513 26.2792 15
    endloop
  endfacet
  facet normal -0 0 1
    outer loop
      vertex 6.60689 27.4545 15
      vertex 7.07041 26.0279 15
      vertex 7.11503 27.6496 15
    endloop
  endfacet
  facet normal 0 0 1
    outer loop
      vertex 6.60689 27.4545 15
      vertex 6.39301 25.8464 15
      vertex 7.07041 26.0279 15
    endloop
  endfacet
  facet normal -0 0 1
    outer loop
      vertex 6.08114 27.3136 15
      vertex 6.39301 25.8464 15
      vertex 6.60689 27.4545 15
    endloop
  endfacet
  facet normal 0 0 1
    outer loop
      vertex 6.08114 27.3136 15
      vertex 5.70034 25.7367 15
      vertex 6.39301 25.8464 15
    endloop
  endfacet
  facet normal -0 0 1
    outer loop
      vertex 5.54355 27.2285 15
      vertex 5.70034 25.7367 15
      vertex 6.08114 27.3136 15
    endloop
  endfacet
  facet normal -0 0 1
    outer loop
      vertex 5 27.2 15
      vertex 5.70034 25.7367 15
      vertex 5.54355 27.2285 15
    endloop
  endfacet
  facet normal 0 0 1
    outer loop
      vertex 5 27.2 15
      vertex 5 25.7 15
      vertex 5.70034 25.7367 15
    endloop
  endfacet
  facet normal 0 0 1
    outer loop
      vertex 4.45645 27.2285 15
      vertex 5 25.7 15
      vertex 5 27.2 15
    endloop
  endfacet
  facet normal 0 0 1
    outer loop
      vertex 4.45645 27.2285 15
      vertex 4.29966 25.7367 15
      vertex 5 25.7 15
    endloop
  endfacet
  facet normal 0 0 1
    outer loop
      vertex 3.91886 27.3136 15
      vertex 4.29966 25.7367 15
      vertex 4.45645 27.2285 15
    endloop
  endfacet
  facet normal 0 0 1
    outer loop
      vertex 3.91886 27.3136 15
      vertex 3.60699 25.8464 15
      vertex 4.29966 25.7367 15
    endloop
  endfacet
  facet normal 0 0 1
    outer loop
      vertex 3.39311 27.4545 15
      vertex 3.60699 25.8464 15
      vertex 3.91886 27.3136 15
    endloop
  endfacet
  facet normal 0 0 1
    outer loop
      vertex 3.39311 27.4545 15
      vertex 2.92959 26.0279 15
      vertex 3.60699 25.8464 15
    endloop
  endfacet
  facet normal 0 0 1
    outer loop
      vertex 2.88497 27.6496 15
      vertex 2.92959 26.0279 15
      vertex 3.39311 27.4545 15
    endloop
  endfacet
  facet normal 0 0 1
    outer loop
      vertex 2.27487 26.2792 15
      vertex 2.88497 27.6496 15
      vertex 2.4 27.8967 15
    endloop
  endfacet
  facet normal 0 0 1
    outer loop
      vertex 2.88497 27.6496 15
      vertex 2.27487 26.2792 15
      vertex 2.92959 26.0279 15
    endloop
  endfacet
  facet normal 0 0 1
    outer loop
      vertex 1.65 26.5976 15
      vertex 2.4 27.8967 15
      vertex 1.94352 28.1931 15
    endloop
  endfacet
  facet normal 0 0 1
    outer loop
      vertex 2.4 27.8967 15
      vertex 1.65 26.5976 15
      vertex 2.27487 26.2792 15
    endloop
  endfacet
  facet normal 0 0 1
    outer loop
      vertex 1.06184 26.9796 15
      vertex 1.94352 28.1931 15
      vertex 1.52052 28.5356 15
    endloop
  endfacet
  facet normal 0 0 1
    outer loop
      vertex 0.516826 27.4209 15
      vertex 1.52052 28.5356 15
      vertex 1.13565 28.9205 15
    endloop
  endfacet
  facet normal 0 0 1
    outer loop
      vertex 1.94352 28.1931 15
      vertex 1.06184 26.9796 15
      vertex 1.65 26.5976 15
    endloop
  endfacet
  facet normal 0 0 1
    outer loop
      vertex 0.0209303 27.9168 15
      vertex 1.13565 28.9205 15
      vertex 0.793112 29.3435 15
    endloop
  endfacet
  facet normal 0 0 1
    outer loop
      vertex 1.52052 28.5356 15
      vertex 0.516826 27.4209 15
      vertex 1.06184 26.9796 15
    endloop
  endfacet
  facet normal 0 0 1
    outer loop
      vertex -0.420413 28.4618 15
      vertex 0.793112 29.3435 15
      vertex 0.496669 29.8 15
    endloop
  endfacet
  facet normal 0 0 1
    outer loop
      vertex -0.80237 29.05 15
      vertex 0.496669 29.8 15
      vertex 0.249564 30.285 15
    endloop
  endfacet
  facet normal 0 0 1
    outer loop
      vertex -1.12075 29.6749 15
      vertex 0.249564 30.285 15
      vertex 0.0545063 30.7931 15
    endloop
  endfacet
  facet normal 0 0 1
    outer loop
      vertex 1.13565 28.9205 15
      vertex 0.0209303 27.9168 15
      vertex 0.516826 27.4209 15
    endloop
  endfacet
  facet normal 0 0 1
    outer loop
      vertex -1.37208 30.3296 15
      vertex 0.0545063 30.7931 15
      vertex -0.0863667 31.3189 15
    endloop
  endfacet
  facet normal 0 0 1
    outer loop
      vertex -1.55359 31.007 15
      vertex -0.0863667 31.3189 15
      vertex -0.171514 31.8565 15
    endloop
  endfacet
  facet normal 0 0 1
    outer loop
      vertex -1.6633 31.6997 15
      vertex -0.171514 31.8565 15
      vertex -0.2 32.4 15
    endloop
  endfacet
  facet normal 0 0 1
    outer loop
      vertex 0.0545063 34.0069 15
      vertex -1.37208 34.4704 15
      vertex -0.0863667 33.4811 15
    endloop
  endfacet
  facet normal 0 0 1
    outer loop
      vertex 0.793112 29.3435 15
      vertex -0.420413 28.4618 15
      vertex 0.0209303 27.9168 15
    endloop
  endfacet
  facet normal -0 0 1
    outer loop
      vertex -1.55359 33.793 15
      vertex -0.0863667 33.4811 15
      vertex -1.37208 34.4704 15
    endloop
  endfacet
  facet normal 0 0 1
    outer loop
      vertex 0.496669 29.8 15
      vertex -0.80237 29.05 15
      vertex -0.420413 28.4618 15
    endloop
  endfacet
  facet normal 0 0 1
    outer loop
      vertex -0.0863667 33.4811 15
      vertex -1.55359 33.793 15
      vertex -0.171514 32.9435 15
    endloop
  endfacet
  facet normal 0 0 1
    outer loop
      vertex 0.249564 30.285 15
      vertex -1.12075 29.6749 15
      vertex -0.80237 29.05 15
    endloop
  endfacet
  facet normal -0 0 1
    outer loop
      vertex -1.6633 33.1003 15
      vertex -0.171514 32.9435 15
      vertex -1.55359 33.793 15
    endloop
  endfacet
  facet normal 0 0 1
    outer loop
      vertex 0.0545063 30.7931 15
      vertex -1.37208 30.3296 15
      vertex -1.12075 29.6749 15
    endloop
  endfacet
  facet normal 0 0 1
    outer loop
      vertex -0.171514 32.9435 15
      vertex -1.6633 33.1003 15
      vertex -0.2 32.4 15
    endloop
  endfacet
  facet normal 0 0 1
    outer loop
      vertex -0.0863667 31.3189 15
      vertex -1.55359 31.007 15
      vertex -1.37208 30.3296 15
    endloop
  endfacet
  facet normal 0 0 1
    outer loop
      vertex -1.7 32.4 15
      vertex -0.2 32.4 15
      vertex -1.6633 33.1003 15
    endloop
  endfacet
  facet normal 0 0 1
    outer loop
      vertex -0.171514 31.8565 15
      vertex -1.6633 31.6997 15
      vertex -1.55359 31.007 15
    endloop
  endfacet
  facet normal 0 0 1
    outer loop
      vertex -0.2 32.4 15
      vertex -1.7 32.4 15
      vertex -1.6633 31.6997 15
    endloop
  endfacet
  facet normal -0.544684 0.838642 0
    outer loop
      vertex 1.65 38.2024 0
      vertex 1.06184 37.8204 15
      vertex 1.65 38.2024 15
    endloop
  endfacet
  facet normal -0.544684 0.838642 0
    outer loop
      vertex 1.06184 37.8204 15
      vertex 1.65 38.2024 0
      vertex 1.06184 37.8204 0
    endloop
  endfacet
  facet normal -0.258807 0.965929 0
    outer loop
      vertex 3.60699 38.9536 0
      vertex 2.92959 38.7721 15
      vertex 3.60699 38.9536 15
    endloop
  endfacet
  facet normal -0.258807 0.965929 0
    outer loop
      vertex 2.92959 38.7721 15
      vertex 3.60699 38.9536 0
      vertex 2.92959 38.7721 0
    endloop
  endfacet
  facet normal -0.0523313 0.99863 0
    outer loop
      vertex 5 39.1 0
      vertex 4.29966 39.0633 15
      vertex 5 39.1 15
    endloop
  endfacet
  facet normal -0.0523313 0.99863 0
    outer loop
      vertex 4.29966 39.0633 15
      vertex 5 39.1 0
      vertex 4.29966 39.0633 0
    endloop
  endfacet
  facet normal 0.0523313 -0.99863 0
    outer loop
      vertex 5 25.7 0
      vertex 5.70034 25.7367 15
      vertex 5 25.7 15
    endloop
  endfacet
  facet normal 0.0523313 -0.99863 0
    outer loop
      vertex 5.70034 25.7367 15
      vertex 5 25.7 0
      vertex 5.70034 25.7367 0
    endloop
  endfacet
  facet normal 0.258807 -0.965929 0
    outer loop
      vertex 6.39301 25.8464 0
      vertex 7.07041 26.0279 15
      vertex 6.39301 25.8464 15
    endloop
  endfacet
  facet normal 0.258807 -0.965929 0
    outer loop
      vertex 7.07041 26.0279 15
      vertex 6.39301 25.8464 0
      vertex 7.07041 26.0279 0
    endloop
  endfacet
  facet normal 0.629286 -0.777174 0
    outer loop
      vertex 8.93816 26.9796 0
      vertex 9.48317 27.4209 15
      vertex 8.93816 26.9796 15
    endloop
  endfacet
  facet normal 0.629286 -0.777174 0
    outer loop
      vertex 9.48317 27.4209 15
      vertex 8.93816 26.9796 0
      vertex 9.48317 27.4209 0
    endloop
  endfacet
  facet normal 0.454005 -0.890999 0
    outer loop
      vertex 7.72513 26.2792 0
      vertex 8.35 26.5976 15
      vertex 7.72513 26.2792 15
    endloop
  endfacet
  facet normal 0.454005 -0.890999 0
    outer loop
      vertex 8.35 26.5976 15
      vertex 7.72513 26.2792 0
      vertex 8.35 26.5976 0
    endloop
  endfacet
  facet normal 0.777148 -0.629318 0
    outer loop
      vertex 9.97907 27.9168 15
      vertex 10.4204 28.4618 0
      vertex 10.4204 28.4618 15
    endloop
  endfacet
  facet normal 0.777148 -0.629318 0
    outer loop
      vertex 10.4204 28.4618 0
      vertex 9.97907 27.9168 15
      vertex 9.97907 27.9168 0
    endloop
  endfacet
  facet normal -0.70711 -0.707104 0
    outer loop
      vertex 0.516826 27.4209 0
      vertex 0.0209303 27.9168 15
      vertex 0.0209303 27.9168 0
    endloop
  endfacet
  facet normal -0.70711 -0.707104 0
    outer loop
      vertex 0.0209303 27.9168 15
      vertex 0.516826 27.4209 0
      vertex 0.516826 27.4209 15
    endloop
  endfacet
  facet normal -0.544684 -0.838642 0
    outer loop
      vertex 1.06184 26.9796 0
      vertex 1.65 26.5976 15
      vertex 1.06184 26.9796 15
    endloop
  endfacet
  facet normal -0.544684 -0.838642 -0
    outer loop
      vertex 1.65 26.5976 15
      vertex 1.06184 26.9796 0
      vertex 1.65 26.5976 0
    endloop
  endfacet
  facet normal -0.358339 -0.933592 0
    outer loop
      vertex 2.27487 26.2792 0
      vertex 2.92959 26.0279 15
      vertex 2.27487 26.2792 15
    endloop
  endfacet
  facet normal -0.358339 -0.933592 -0
    outer loop
      vertex 2.92959 26.0279 15
      vertex 2.27487 26.2792 0
      vertex 2.92959 26.0279 0
    endloop
  endfacet
  facet normal -0.156423 -0.98769 0
    outer loop
      vertex 3.60699 25.8464 0
      vertex 4.29966 25.7367 15
      vertex 3.60699 25.8464 15
    endloop
  endfacet
  facet normal -0.156423 -0.98769 -0
    outer loop
      vertex 4.29966 25.7367 15
      vertex 3.60699 25.8464 0
      vertex 4.29966 25.7367 0
    endloop
  endfacet
  facet normal -0.838687 -0.544614 0
    outer loop
      vertex -0.420413 28.4618 0
      vertex -0.80237 29.05 15
      vertex -0.80237 29.05 0
    endloop
  endfacet
  facet normal -0.838687 -0.544614 0
    outer loop
      vertex -0.80237 29.05 15
      vertex -0.420413 28.4618 0
      vertex -0.420413 28.4618 15
    endloop
  endfacet
  facet normal -0.965925 -0.258821 0
    outer loop
      vertex -1.37208 30.3296 0
      vertex -1.55359 31.007 15
      vertex -1.55359 31.007 0
    endloop
  endfacet
  facet normal -0.965925 -0.258821 0
    outer loop
      vertex -1.55359 31.007 15
      vertex -1.37208 30.3296 0
      vertex -1.37208 30.3296 15
    endloop
  endfacet
  facet normal -0.99863 -0.0523343 0
    outer loop
      vertex -1.6633 31.6997 0
      vertex -1.7 32.4 15
      vertex -1.7 32.4 0
    endloop
  endfacet
  facet normal -0.99863 -0.0523343 0
    outer loop
      vertex -1.7 32.4 15
      vertex -1.6633 31.6997 0
      vertex -1.6633 31.6997 15
    endloop
  endfacet
  facet normal 0.156423 -0.98769 0
    outer loop
      vertex 5.70034 25.7367 0
      vertex 6.39301 25.8464 15
      vertex 5.70034 25.7367 15
    endloop
  endfacet
  facet normal 0.156423 -0.98769 0
    outer loop
      vertex 6.39301 25.8464 15
      vertex 5.70034 25.7367 0
      vertex 6.39301 25.8464 0
    endloop
  endfacet
  facet normal 0.358339 -0.933592 0
    outer loop
      vertex 7.07041 26.0279 0
      vertex 7.72513 26.2792 15
      vertex 7.07041 26.0279 15
    endloop
  endfacet
  facet normal 0.358339 -0.933592 0
    outer loop
      vertex 7.72513 26.2792 15
      vertex 7.07041 26.0279 0
      vertex 7.72513 26.2792 0
    endloop
  endfacet
  facet normal 0.707107 -0.707107 0
    outer loop
      vertex 9.48317 27.4209 15
      vertex 9.97907 27.9168 0
      vertex 9.97907 27.9168 15
    endloop
  endfacet
  facet normal 0.707107 -0.707107 0
    outer loop
      vertex 9.97907 27.9168 0
      vertex 9.48317 27.4209 15
      vertex 9.48317 27.4209 0
    endloop
  endfacet
  facet normal 0.544684 -0.838642 0
    outer loop
      vertex 8.35 26.5976 0
      vertex 8.93816 26.9796 15
      vertex 8.35 26.5976 15
    endloop
  endfacet
  facet normal 0.544684 -0.838642 0
    outer loop
      vertex 8.93816 26.9796 15
      vertex 8.35 26.5976 0
      vertex 8.93816 26.9796 0
    endloop
  endfacet
  facet normal 0.838645 -0.544679 0
    outer loop
      vertex 10.4204 28.4618 15
      vertex 10.705 28.9 0
      vertex 10.705 28.9 15
    endloop
  endfacet
  facet normal 0.838645 -0.544679 0
    outer loop
      vertex 10.705 28.9 0
      vertex 10.4204 28.4618 15
      vertex 10.4204 28.4618 0
    endloop
  endfacet
  facet normal -0.629283 -0.777176 0
    outer loop
      vertex 0.516826 27.4209 0
      vertex 1.06184 26.9796 15
      vertex 0.516826 27.4209 15
    endloop
  endfacet
  facet normal -0.629283 -0.777176 -0
    outer loop
      vertex 1.06184 26.9796 15
      vertex 0.516826 27.4209 0
      vertex 1.06184 26.9796 0
    endloop
  endfacet
  facet normal -0.454005 -0.890999 0
    outer loop
      vertex 1.65 26.5976 0
      vertex 2.27487 26.2792 15
      vertex 1.65 26.5976 15
    endloop
  endfacet
  facet normal -0.454005 -0.890999 -0
    outer loop
      vertex 2.27487 26.2792 15
      vertex 1.65 26.5976 0
      vertex 2.27487 26.2792 0
    endloop
  endfacet
  facet normal -0.258807 -0.965929 0
    outer loop
      vertex 2.92959 26.0279 0
      vertex 3.60699 25.8464 15
      vertex 2.92959 26.0279 15
    endloop
  endfacet
  facet normal -0.258807 -0.965929 -0
    outer loop
      vertex 3.60699 25.8464 15
      vertex 2.92959 26.0279 0
      vertex 3.60699 25.8464 0
    endloop
  endfacet
  facet normal -0.0523313 -0.99863 0
    outer loop
      vertex 4.29966 25.7367 0
      vertex 5 25.7 15
      vertex 4.29966 25.7367 15
    endloop
  endfacet
  facet normal -0.0523313 -0.99863 -0
    outer loop
      vertex 5 25.7 15
      vertex 4.29966 25.7367 0
      vertex 5 25.7 0
    endloop
  endfacet
  facet normal -0.777138 -0.62933 0
    outer loop
      vertex 0.0209303 27.9168 0
      vertex -0.420413 28.4618 15
      vertex -0.420413 28.4618 0
    endloop
  endfacet
  facet normal -0.777138 -0.62933 0
    outer loop
      vertex -0.420413 28.4618 15
      vertex 0.0209303 27.9168 0
      vertex 0.0209303 27.9168 15
    endloop
  endfacet
  facet normal -0.987689 -0.15643 0
    outer loop
      vertex -1.55359 31.007 0
      vertex -1.6633 31.6997 15
      vertex -1.6633 31.6997 0
    endloop
  endfacet
  facet normal -0.987689 -0.15643 0
    outer loop
      vertex -1.6633 31.6997 15
      vertex -1.55359 31.007 0
      vertex -1.55359 31.007 15
    endloop
  endfacet
  facet normal 1 0 0
    outer loop
      vertex 61.5 30.9 9.14466
      vertex 61.5 28.9 9.14466
      vertex 61.5 30.9 2
    endloop
  endfacet
  facet normal 1 0 0
    outer loop
      vertex 61.5 33.9 2
      vertex 61.5 35.9 9.14466
      vertex 61.5 33.9 9.14466
    endloop
  endfacet
  facet normal 1 0 0
    outer loop
      vertex 61.5 35.9 9.14466
      vertex 61.5 33.9 2
      vertex 61.5 35.9 0
    endloop
  endfacet
  facet normal 1 -0 0
    outer loop
      vertex 61.5 30.9 2
      vertex 61.5 35.9 0
      vertex 61.5 33.9 2
    endloop
  endfacet
  facet normal 1 0 0
    outer loop
      vertex 61.5 30.9 2
      vertex 61.5 28.9 0
      vertex 61.5 35.9 0
    endloop
  endfacet
  facet normal 1 0 0
    outer loop
      vertex 61.5 28.9 0
      vertex 61.5 30.9 2
      vertex 61.5 28.9 9.14466
    endloop
  endfacet
  facet normal 0 -1 0
    outer loop
      vertex 10.705 28.9 0
      vertex 55.6447 28.9 15
      vertex 10.705 28.9 15
    endloop
  endfacet
  facet normal 0 -1 0
    outer loop
      vertex 61.5 28.9 0
      vertex 55.6447 28.9 15
      vertex 10.705 28.9 0
    endloop
  endfacet
  facet normal 0 -1 0
    outer loop
      vertex 55.6447 28.9 15
      vertex 61.5 28.9 0
      vertex 61.5 28.9 9.14466
    endloop
  endfacet
  facet normal 0 1 -0
    outer loop
      vertex 61.5 35.9 0
      vertex 55.6447 35.9 15
      vertex 61.5 35.9 9.14466
    endloop
  endfacet
  facet normal 0 1 0
    outer loop
      vertex 55.6447 35.9 15
      vertex 61.5 35.9 0
      vertex 10.705 35.9 0
    endloop
  endfacet
  facet normal 0 1 0
    outer loop
      vertex 55.6447 35.9 15
      vertex 10.705 35.9 0
      vertex 10.705 35.9 15
    endloop
  endfacet
  facet normal -0.998628 -0.052366 0
    outer loop
      vertex 10.2 32.4 0
      vertex 10.1715 32.9435 15
      vertex 10.1715 32.9435 0
    endloop
  endfacet
  facet normal -0.998628 -0.052366 0
    outer loop
      vertex 10.1715 32.9435 15
      vertex 10.2 32.4 0
      vertex 10.2 32.4 15
    endloop
  endfacet
  facet normal 0.998629 -0.0523403 0
    outer loop
      vertex -0.2 32.4 15
      vertex -0.171514 32.9435 0
      vertex -0.171514 32.9435 15
    endloop
  endfacet
  facet normal 0.998629 -0.0523403 0
    outer loop
      vertex -0.171514 32.9435 0
      vertex -0.2 32.4 15
      vertex -0.2 32.4 0
    endloop
  endfacet
  facet normal -0.0523612 -0.998628 0
    outer loop
      vertex 5 37.6 0
      vertex 5.54355 37.5715 15
      vertex 5 37.6 15
    endloop
  endfacet
  facet normal -0.0523612 -0.998628 -0
    outer loop
      vertex 5.54355 37.5715 15
      vertex 5 37.6 0
      vertex 5.54355 37.5715 0
    endloop
  endfacet
  facet normal -0.707134 -0.707079 0
    outer loop
      vertex 8.47948 36.2644 0
      vertex 8.86435 35.8795 15
      vertex 8.47948 36.2644 15
    endloop
  endfacet
  facet normal -0.707134 -0.707079 -0
    outer loop
      vertex 8.86435 35.8795 15
      vertex 8.47948 36.2644 0
      vertex 8.86435 35.8795 0
    endloop
  endfacet
  facet normal 0.629278 -0.777181 0
    outer loop
      vertex 1.52052 36.2644 0
      vertex 1.94352 36.6069 15
      vertex 1.52052 36.2644 15
    endloop
  endfacet
  facet normal 0.629278 -0.777181 0
    outer loop
      vertex 1.94352 36.6069 15
      vertex 1.52052 36.2644 0
      vertex 1.94352 36.6069 0
    endloop
  endfacet
  facet normal 0.258863 -0.965914 0
    outer loop
      vertex 3.39311 37.3455 0
      vertex 3.91886 37.4864 15
      vertex 3.39311 37.3455 15
    endloop
  endfacet
  facet normal 0.258863 -0.965914 0
    outer loop
      vertex 3.91886 37.4864 15
      vertex 3.39311 37.3455 0
      vertex 3.91886 37.4864 0
    endloop
  endfacet
  facet normal -0.933575 -0.358382 0
    outer loop
      vertex 9.94549 34.0069 0
      vertex 9.75044 34.515 15
      vertex 9.75044 34.515 0
    endloop
  endfacet
  facet normal -0.933575 -0.358382 0
    outer loop
      vertex 9.75044 34.515 15
      vertex 9.94549 34.0069 0
      vertex 9.94549 34.0069 15
    endloop
  endfacet
  facet normal -0.358437 -0.933554 0
    outer loop
      vertex 6.60689 37.3455 0
      vertex 7.11503 37.1504 15
      vertex 6.60689 37.3455 15
    endloop
  endfacet
  facet normal -0.358437 -0.933554 -0
    outer loop
      vertex 7.11503 37.1504 15
      vertex 6.60689 37.3455 0
      vertex 7.11503 37.1504 0
    endloop
  endfacet
  facet normal -0.544585 -0.838705 0
    outer loop
      vertex 7.6 36.9033 0
      vertex 8.05648 36.6069 15
      vertex 7.6 36.9033 15
    endloop
  endfacet
  facet normal -0.544585 -0.838705 -0
    outer loop
      vertex 8.05648 36.6069 15
      vertex 7.6 36.9033 0
      vertex 8.05648 36.6069 0
    endloop
  endfacet
  facet normal 0.891018 -0.453969 0
    outer loop
      vertex 0.249564 34.515 15
      vertex 0.496669 35 0
      vertex 0.496669 35 15
    endloop
  endfacet
  facet normal 0.891018 -0.453969 0
    outer loop
      vertex 0.496669 35 0
      vertex 0.249564 34.515 15
      vertex 0.249564 34.515 0
    endloop
  endfacet
  facet normal 0.0523612 -0.998628 0
    outer loop
      vertex 4.45645 37.5715 0
      vertex 5 37.6 15
      vertex 4.45645 37.5715 15
    endloop
  endfacet
  facet normal 0.0523612 -0.998628 0
    outer loop
      vertex 5 37.6 15
      vertex 4.45645 37.5715 0
      vertex 5 37.6 0
    endloop
  endfacet
  facet normal 0.998629 0.0523403 0
    outer loop
      vertex -0.171514 31.8565 15
      vertex -0.2 32.4 0
      vertex -0.2 32.4 15
    endloop
  endfacet
  facet normal 0.998629 0.0523403 0
    outer loop
      vertex -0.2 32.4 0
      vertex -0.171514 31.8565 15
      vertex -0.171514 31.8565 0
    endloop
  endfacet
  facet normal -0.965916 -0.258857 0
    outer loop
      vertex 10.0864 33.4811 0
      vertex 9.94549 34.0069 15
      vertex 9.94549 34.0069 0
    endloop
  endfacet
  facet normal -0.965916 -0.258857 0
    outer loop
      vertex 9.94549 34.0069 15
      vertex 10.0864 33.4811 0
      vertex 10.0864 33.4811 15
    endloop
  endfacet
  facet normal -0.987702 -0.156349 0
    outer loop
      vertex 10.1715 32.9435 0
      vertex 10.0864 33.4811 15
      vertex 10.0864 33.4811 0
    endloop
  endfacet
  facet normal -0.987702 -0.156349 0
    outer loop
      vertex 10.0864 33.4811 15
      vertex 10.1715 32.9435 0
      vertex 10.1715 32.9435 15
    endloop
  endfacet
  facet normal -0.838683 -0.54462 0
    outer loop
      vertex 9.50333 35 0
      vertex 9.20689 35.4565 15
      vertex 9.20689 35.4565 0
    endloop
  endfacet
  facet normal -0.838683 -0.54462 0
    outer loop
      vertex 9.20689 35.4565 15
      vertex 9.50333 35 0
      vertex 9.50333 35 15
    endloop
  endfacet
  facet normal -0.777145 -0.629322 0
    outer loop
      vertex 9.20689 35.4565 0
      vertex 8.86435 35.8795 15
      vertex 8.86435 35.8795 0
    endloop
  endfacet
  facet normal -0.777145 -0.629322 0
    outer loop
      vertex 8.86435 35.8795 15
      vertex 9.20689 35.4565 0
      vertex 9.20689 35.4565 15
    endloop
  endfacet
  facet normal -0.891014 -0.453976 0
    outer loop
      vertex 9.75044 34.515 0
      vertex 9.50333 35 15
      vertex 9.50333 35 0
    endloop
  endfacet
  facet normal -0.891014 -0.453976 0
    outer loop
      vertex 9.50333 35 15
      vertex 9.75044 34.515 0
      vertex 9.75044 34.515 15
    endloop
  endfacet
  facet normal -0.258863 -0.965914 0
    outer loop
      vertex 6.08114 37.4864 0
      vertex 6.60689 37.3455 15
      vertex 6.08114 37.4864 15
    endloop
  endfacet
  facet normal -0.258863 -0.965914 -0
    outer loop
      vertex 6.60689 37.3455 15
      vertex 6.08114 37.4864 0
      vertex 6.60689 37.3455 0
    endloop
  endfacet
  facet normal -0.156352 -0.987701 0
    outer loop
      vertex 5.54355 37.5715 0
      vertex 6.08114 37.4864 15
      vertex 5.54355 37.5715 15
    endloop
  endfacet
  facet normal -0.156352 -0.987701 -0
    outer loop
      vertex 6.08114 37.4864 15
      vertex 5.54355 37.5715 0
      vertex 6.08114 37.4864 0
    endloop
  endfacet
  facet normal -0.453984 -0.89101 0
    outer loop
      vertex 7.11503 37.1504 0
      vertex 7.6 36.9033 15
      vertex 7.11503 37.1504 15
    endloop
  endfacet
  facet normal -0.453984 -0.89101 -0
    outer loop
      vertex 7.6 36.9033 15
      vertex 7.11503 37.1504 0
      vertex 7.6 36.9033 0
    endloop
  endfacet
  facet normal -0.629278 -0.777181 0
    outer loop
      vertex 8.05648 36.6069 0
      vertex 8.47948 36.2644 15
      vertex 8.05648 36.6069 15
    endloop
  endfacet
  facet normal -0.629278 -0.777181 -0
    outer loop
      vertex 8.47948 36.2644 15
      vertex 8.05648 36.6069 0
      vertex 8.47948 36.2644 0
    endloop
  endfacet
  facet normal 0.965933 -0.258794 0
    outer loop
      vertex -0.0863667 33.4811 15
      vertex 0.0545063 34.0069 0
      vertex 0.0545063 34.0069 15
    endloop
  endfacet
  facet normal 0.965933 -0.258794 0
    outer loop
      vertex 0.0545063 34.0069 0
      vertex -0.0863667 33.4811 15
      vertex -0.0863667 33.4811 0
    endloop
  endfacet
  facet normal 0.777147 -0.62932 0
    outer loop
      vertex 0.793112 35.4565 15
      vertex 1.13565 35.8795 0
      vertex 1.13565 35.8795 15
    endloop
  endfacet
  facet normal 0.777147 -0.62932 0
    outer loop
      vertex 1.13565 35.8795 0
      vertex 0.793112 35.4565 15
      vertex 0.793112 35.4565 0
    endloop
  endfacet
  facet normal 0.707134 -0.707079 0
    outer loop
      vertex 1.13565 35.8795 0
      vertex 1.52052 36.2644 15
      vertex 1.13565 35.8795 15
    endloop
  endfacet
  facet normal 0.707134 -0.707079 0
    outer loop
      vertex 1.52052 36.2644 15
      vertex 1.13565 35.8795 0
      vertex 1.52052 36.2644 0
    endloop
  endfacet
  facet normal 0.83868 -0.544624 0
    outer loop
      vertex 0.496669 35 15
      vertex 0.793112 35.4565 0
      vertex 0.793112 35.4565 15
    endloop
  endfacet
  facet normal 0.83868 -0.544624 0
    outer loop
      vertex 0.793112 35.4565 0
      vertex 0.496669 35 15
      vertex 0.496669 35 0
    endloop
  endfacet
  facet normal 0.93357 -0.358394 0
    outer loop
      vertex 0.0545063 34.0069 15
      vertex 0.249564 34.515 0
      vertex 0.249564 34.515 15
    endloop
  endfacet
  facet normal 0.93357 -0.358394 0
    outer loop
      vertex 0.249564 34.515 0
      vertex 0.0545063 34.0069 15
      vertex 0.0545063 34.0069 0
    endloop
  endfacet
  facet normal 0.987688 -0.156434 0
    outer loop
      vertex -0.171514 32.9435 15
      vertex -0.0863667 33.4811 0
      vertex -0.0863667 33.4811 15
    endloop
  endfacet
  facet normal 0.987688 -0.156434 0
    outer loop
      vertex -0.0863667 33.4811 0
      vertex -0.171514 32.9435 15
      vertex -0.171514 32.9435 0
    endloop
  endfacet
  facet normal 0.453984 -0.89101 0
    outer loop
      vertex 2.4 36.9033 0
      vertex 2.88497 37.1504 15
      vertex 2.4 36.9033 15
    endloop
  endfacet
  facet normal 0.453984 -0.89101 0
    outer loop
      vertex 2.88497 37.1504 15
      vertex 2.4 36.9033 0
      vertex 2.88497 37.1504 0
    endloop
  endfacet
  facet normal 0.358437 -0.933554 0
    outer loop
      vertex 2.88497 37.1504 0
      vertex 3.39311 37.3455 15
      vertex 2.88497 37.1504 15
    endloop
  endfacet
  facet normal 0.358437 -0.933554 0
    outer loop
      vertex 3.39311 37.3455 15
      vertex 2.88497 37.1504 0
      vertex 3.39311 37.3455 0
    endloop
  endfacet
  facet normal 0.544585 -0.838705 0
    outer loop
      vertex 1.94352 36.6069 0
      vertex 2.4 36.9033 15
      vertex 1.94352 36.6069 15
    endloop
  endfacet
  facet normal 0.544585 -0.838705 0
    outer loop
      vertex 2.4 36.9033 15
      vertex 1.94352 36.6069 0
      vertex 2.4 36.9033 0
    endloop
  endfacet
  facet normal 0.156352 -0.987701 0
    outer loop
      vertex 3.91886 37.4864 0
      vertex 4.45645 37.5715 15
      vertex 3.91886 37.4864 15
    endloop
  endfacet
  facet normal 0.156352 -0.987701 0
    outer loop
      vertex 4.45645 37.5715 15
      vertex 3.91886 37.4864 0
      vertex 4.45645 37.5715 0
    endloop
  endfacet
  facet normal -0.998628 0.052366 0
    outer loop
      vertex 10.1715 31.8565 0
      vertex 10.2 32.4 15
      vertex 10.2 32.4 0
    endloop
  endfacet
  facet normal -0.998628 0.052366 0
    outer loop
      vertex 10.2 32.4 15
      vertex 10.1715 31.8565 0
      vertex 10.1715 31.8565 15
    endloop
  endfacet
  facet normal -0.0523612 0.998628 0
    outer loop
      vertex 5.54355 27.2285 0
      vertex 5 27.2 15
      vertex 5.54355 27.2285 15
    endloop
  endfacet
  facet normal -0.0523612 0.998628 0
    outer loop
      vertex 5 27.2 15
      vertex 5.54355 27.2285 0
      vertex 5 27.2 0
    endloop
  endfacet
  facet normal -0.258863 0.965914 0
    outer loop
      vertex 6.60689 27.4545 0
      vertex 6.08114 27.3136 15
      vertex 6.60689 27.4545 15
    endloop
  endfacet
  facet normal -0.258863 0.965914 0
    outer loop
      vertex 6.08114 27.3136 15
      vertex 6.60689 27.4545 0
      vertex 6.08114 27.3136 0
    endloop
  endfacet
  facet normal -0.629278 0.777181 0
    outer loop
      vertex 8.47948 28.5356 0
      vertex 8.05648 28.1931 15
      vertex 8.47948 28.5356 15
    endloop
  endfacet
  facet normal -0.629278 0.777181 0
    outer loop
      vertex 8.05648 28.1931 15
      vertex 8.47948 28.5356 0
      vertex 8.05648 28.1931 0
    endloop
  endfacet
  facet normal -0.453984 0.89101 0
    outer loop
      vertex 7.6 27.8967 0
      vertex 7.11503 27.6496 15
      vertex 7.6 27.8967 15
    endloop
  endfacet
  facet normal -0.453984 0.89101 0
    outer loop
      vertex 7.11503 27.6496 15
      vertex 7.6 27.8967 0
      vertex 7.11503 27.6496 0
    endloop
  endfacet
  facet normal -0.777145 0.629322 0
    outer loop
      vertex 8.86435 28.9205 0
      vertex 9.20689 29.3435 15
      vertex 9.20689 29.3435 0
    endloop
  endfacet
  facet normal -0.777145 0.629322 0
    outer loop
      vertex 9.20689 29.3435 15
      vertex 8.86435 28.9205 0
      vertex 8.86435 28.9205 15
    endloop
  endfacet
  facet normal -0.891014 0.453976 0
    outer loop
      vertex 9.50333 29.8 0
      vertex 9.75044 30.285 15
      vertex 9.75044 30.285 0
    endloop
  endfacet
  facet normal -0.891014 0.453976 0
    outer loop
      vertex 9.75044 30.285 15
      vertex 9.50333 29.8 0
      vertex 9.50333 29.8 15
    endloop
  endfacet
  facet normal 0.707134 0.707079 -0
    outer loop
      vertex 1.52052 28.5356 0
      vertex 1.13565 28.9205 15
      vertex 1.52052 28.5356 15
    endloop
  endfacet
  facet normal 0.707134 0.707079 0
    outer loop
      vertex 1.13565 28.9205 15
      vertex 1.52052 28.5356 0
      vertex 1.13565 28.9205 0
    endloop
  endfacet
  facet normal 0.544585 0.838705 -0
    outer loop
      vertex 2.4 27.8967 0
      vertex 1.94352 28.1931 15
      vertex 2.4 27.8967 15
    endloop
  endfacet
  facet normal 0.544585 0.838705 0
    outer loop
      vertex 1.94352 28.1931 15
      vertex 2.4 27.8967 0
      vertex 1.94352 28.1931 0
    endloop
  endfacet
  facet normal 0.358437 0.933554 -0
    outer loop
      vertex 3.39311 27.4545 0
      vertex 2.88497 27.6496 15
      vertex 3.39311 27.4545 15
    endloop
  endfacet
  facet normal 0.358437 0.933554 0
    outer loop
      vertex 2.88497 27.6496 15
      vertex 3.39311 27.4545 0
      vertex 2.88497 27.6496 0
    endloop
  endfacet
  facet normal 0.156352 0.987701 -0
    outer loop
      vertex 4.45645 27.2285 0
      vertex 3.91886 27.3136 15
      vertex 4.45645 27.2285 15
    endloop
  endfacet
  facet normal 0.156352 0.987701 0
    outer loop
      vertex 3.91886 27.3136 15
      vertex 4.45645 27.2285 0
      vertex 3.91886 27.3136 0
    endloop
  endfacet
  facet normal 0.93357 0.358394 0
    outer loop
      vertex 0.249564 30.285 15
      vertex 0.0545063 30.7931 0
      vertex 0.0545063 30.7931 15
    endloop
  endfacet
  facet normal 0.93357 0.358394 0
    outer loop
      vertex 0.0545063 30.7931 0
      vertex 0.249564 30.285 15
      vertex 0.249564 30.285 0
    endloop
  endfacet
  facet normal 0.83868 0.544624 0
    outer loop
      vertex 0.793112 29.3435 15
      vertex 0.496669 29.8 0
      vertex 0.496669 29.8 15
    endloop
  endfacet
  facet normal 0.83868 0.544624 0
    outer loop
      vertex 0.496669 29.8 0
      vertex 0.793112 29.3435 15
      vertex 0.793112 29.3435 0
    endloop
  endfacet
  facet normal 0.987688 0.156434 0
    outer loop
      vertex -0.0863667 31.3189 15
      vertex -0.171514 31.8565 0
      vertex -0.171514 31.8565 15
    endloop
  endfacet
  facet normal 0.987688 0.156434 0
    outer loop
      vertex -0.171514 31.8565 0
      vertex -0.0863667 31.3189 15
      vertex -0.0863667 31.3189 0
    endloop
  endfacet
  facet normal -0.156352 0.987701 0
    outer loop
      vertex 6.08114 27.3136 0
      vertex 5.54355 27.2285 15
      vertex 6.08114 27.3136 15
    endloop
  endfacet
  facet normal -0.156352 0.987701 0
    outer loop
      vertex 5.54355 27.2285 15
      vertex 6.08114 27.3136 0
      vertex 5.54355 27.2285 0
    endloop
  endfacet
  facet normal -0.358437 0.933554 0
    outer loop
      vertex 7.11503 27.6496 0
      vertex 6.60689 27.4545 15
      vertex 7.11503 27.6496 15
    endloop
  endfacet
  facet normal -0.358437 0.933554 0
    outer loop
      vertex 6.60689 27.4545 15
      vertex 7.11503 27.6496 0
      vertex 6.60689 27.4545 0
    endloop
  endfacet
  facet normal -0.707134 0.707079 0
    outer loop
      vertex 8.86435 28.9205 0
      vertex 8.47948 28.5356 15
      vertex 8.86435 28.9205 15
    endloop
  endfacet
  facet normal -0.707134 0.707079 0
    outer loop
      vertex 8.47948 28.5356 15
      vertex 8.86435 28.9205 0
      vertex 8.47948 28.5356 0
    endloop
  endfacet
  facet normal -0.544585 0.838705 0
    outer loop
      vertex 8.05648 28.1931 0
      vertex 7.6 27.8967 15
      vertex 8.05648 28.1931 15
    endloop
  endfacet
  facet normal -0.544585 0.838705 0
    outer loop
      vertex 7.6 27.8967 15
      vertex 8.05648 28.1931 0
      vertex 7.6 27.8967 0
    endloop
  endfacet
  facet normal -0.838683 0.54462 0
    outer loop
      vertex 9.20689 29.3435 0
      vertex 9.50333 29.8 15
      vertex 9.50333 29.8 0
    endloop
  endfacet
  facet normal -0.838683 0.54462 0
    outer loop
      vertex 9.50333 29.8 15
      vertex 9.20689 29.3435 0
      vertex 9.20689 29.3435 15
    endloop
  endfacet
  facet normal -0.933575 0.358382 0
    outer loop
      vertex 9.75044 30.285 0
      vertex 9.94549 30.7931 15
      vertex 9.94549 30.7931 0
    endloop
  endfacet
  facet normal -0.933575 0.358382 0
    outer loop
      vertex 9.94549 30.7931 15
      vertex 9.75044 30.285 0
      vertex 9.75044 30.285 15
    endloop
  endfacet
  facet normal -0.987702 0.156349 0
    outer loop
      vertex 10.0864 31.3189 0
      vertex 10.1715 31.8565 15
      vertex 10.1715 31.8565 0
    endloop
  endfacet
  facet normal -0.987702 0.156349 0
    outer loop
      vertex 10.1715 31.8565 15
      vertex 10.0864 31.3189 0
      vertex 10.0864 31.3189 15
    endloop
  endfacet
  facet normal -0.965916 0.258857 0
    outer loop
      vertex 9.94549 30.7931 0
      vertex 10.0864 31.3189 15
      vertex 10.0864 31.3189 0
    endloop
  endfacet
  facet normal -0.965916 0.258857 0
    outer loop
      vertex 10.0864 31.3189 15
      vertex 9.94549 30.7931 0
      vertex 9.94549 30.7931 15
    endloop
  endfacet
  facet normal 0.629278 0.777181 -0
    outer loop
      vertex 1.94352 28.1931 0
      vertex 1.52052 28.5356 15
      vertex 1.94352 28.1931 15
    endloop
  endfacet
  facet normal 0.629278 0.777181 0
    outer loop
      vertex 1.52052 28.5356 15
      vertex 1.94352 28.1931 0
      vertex 1.52052 28.5356 0
    endloop
  endfacet
  facet normal 0.453984 0.89101 -0
    outer loop
      vertex 2.88497 27.6496 0
      vertex 2.4 27.8967 15
      vertex 2.88497 27.6496 15
    endloop
  endfacet
  facet normal 0.453984 0.89101 0
    outer loop
      vertex 2.4 27.8967 15
      vertex 2.88497 27.6496 0
      vertex 2.4 27.8967 0
    endloop
  endfacet
  facet normal 0.258863 0.965914 -0
    outer loop
      vertex 3.91886 27.3136 0
      vertex 3.39311 27.4545 15
      vertex 3.91886 27.3136 15
    endloop
  endfacet
  facet normal 0.258863 0.965914 0
    outer loop
      vertex 3.39311 27.4545 15
      vertex 3.91886 27.3136 0
      vertex 3.39311 27.4545 0
    endloop
  endfacet
  facet normal 0.0523612 0.998628 -0
    outer loop
      vertex 5 27.2 0
      vertex 4.45645 27.2285 15
      vertex 5 27.2 15
    endloop
  endfacet
  facet normal 0.0523612 0.998628 0
    outer loop
      vertex 4.45645 27.2285 15
      vertex 5 27.2 0
      vertex 4.45645 27.2285 0
    endloop
  endfacet
  facet normal 0.891018 0.453969 0
    outer loop
      vertex 0.496669 29.8 15
      vertex 0.249564 30.285 0
      vertex 0.249564 30.285 15
    endloop
  endfacet
  facet normal 0.891018 0.453969 0
    outer loop
      vertex 0.249564 30.285 0
      vertex 0.496669 29.8 15
      vertex 0.496669 29.8 0
    endloop
  endfacet
  facet normal 0.777147 0.62932 0
    outer loop
      vertex 1.13565 28.9205 15
      vertex 0.793112 29.3435 0
      vertex 0.793112 29.3435 15
    endloop
  endfacet
  facet normal 0.777147 0.62932 0
    outer loop
      vertex 0.793112 29.3435 0
      vertex 1.13565 28.9205 15
      vertex 1.13565 28.9205 0
    endloop
  endfacet
  facet normal 0.965933 0.258794 0
    outer loop
      vertex 0.0545063 30.7931 15
      vertex -0.0863667 31.3189 0
      vertex -0.0863667 31.3189 15
    endloop
  endfacet
  facet normal 0.965933 0.258794 0
    outer loop
      vertex -0.0863667 31.3189 0
      vertex 0.0545063 30.7931 15
      vertex 0.0545063 30.7931 0
    endloop
  endfacet
  facet normal 1 -0 0
    outer loop
      vertex 11.5 30.9 15
      vertex 11.5 33.9 2
      vertex 11.5 33.9 15
    endloop
  endfacet
  facet normal 1 0 0
    outer loop
      vertex 11.5 33.9 2
      vertex 11.5 30.9 15
      vertex 11.5 30.9 2
    endloop
  endfacet
  facet normal -0 0 1
    outer loop
      vertex 11.5 33.9 2
      vertex 61.5 30.9 2
      vertex 61.5 33.9 2
    endloop
  endfacet
  facet normal 0 0 1
    outer loop
      vertex 61.5 30.9 2
      vertex 11.5 33.9 2
      vertex 11.5 30.9 2
    endloop
  endfacet
  facet normal 0 1 -0
    outer loop
      vertex 61.5 30.9 2
      vertex 55.6447 30.9 15
      vertex 61.5 30.9 9.14466
    endloop
  endfacet
  facet normal 0 1 0
    outer loop
      vertex 55.6447 30.9 15
      vertex 61.5 30.9 2
      vertex 11.5 30.9 2
    endloop
  endfacet
  facet normal 0 1 0
    outer loop
      vertex 55.6447 30.9 15
      vertex 11.5 30.9 2
      vertex 11.5 30.9 15
    endloop
  endfacet
  facet normal 0 -1 0
    outer loop
      vertex 11.5 33.9 2
      vertex 55.6447 33.9 15
      vertex 11.5 33.9 15
    endloop
  endfacet
  facet normal 0 -1 0
    outer loop
      vertex 61.5 33.9 2
      vertex 55.6447 33.9 15
      vertex 11.5 33.9 2
    endloop
  endfacet
  facet normal 0 -1 0
    outer loop
      vertex 55.6447 33.9 15
      vertex 61.5 33.9 2
      vertex 61.5 33.9 9.14466
    endloop
  endfacet
  facet normal 0.707109 -0 0.707104
    outer loop
      vertex 55.6447 28.9 15
      vertex 61.5 30.9 9.14466
      vertex 55.6447 30.9 15
    endloop
  endfacet
  facet normal 0.707109 0 0.707104
    outer loop
      vertex 61.5 30.9 9.14466
      vertex 55.6447 28.9 15
      vertex 61.5 28.9 9.14466
    endloop
  endfacet
  facet normal 0.707109 -0 0.707104
    outer loop
      vertex 55.6447 33.9 15
      vertex 61.5 35.9 9.14466
      vertex 55.6447 35.9 15
    endloop
  endfacet
  facet normal 0.707109 0 0.707104
    outer loop
      vertex 61.5 35.9 9.14466
      vertex 55.6447 33.9 15
      vertex 61.5 33.9 9.14466
    endloop
  endfacet
endsolid OpenSCAD_Model
